<svg xmlns="http://www.w3.org/2000/svg" viewBox="0 0 512 483.7"><path d="M499.8 226.1L285.9 12.2C277.8 4.1 267.8 0 256 0c-12 0-21.9 4.1-29.6 12.2L12.5 226.1C4.2 234.4 0 244.4 0 256c0 11.4 4.2 21.2 12.5 29.6l24.6 24.6c7.9 8.3 17.7 12.5 29.6 12.5 11.8 0 21.7-4.2 29.6-12.5l96.6-96.3v231.4c0 11.4 4.1 20.6 12.3 27.8 8.2 7.1 18.1 10.7 29.7 10.7H277c11.6 0 21.5-3.6 29.7-10.7s12.3-16.4 12.3-27.8V213.9l96.6 96.3c7.9 8.3 17.7 12.5 29.6 12.5 11.6 0 21.6-4.2 29.9-12.5l24.6-24.6c8.1-8.5 12.2-18.4 12.2-29.6.1-11.4-4-21.4-12.1-29.9z" fill="#fff"/></svg>