<svg xmlns="http://www.w3.org/2000/svg" viewBox="0 0 512 510.8"><path d="M500.5 404.1l-79-79.1c-15.7-15.7-41.8-15.2-58.1 1.1l-39.8 39.8c-2.5-1.4-5.1-2.8-7.9-4.4-25.2-13.9-59.6-33-95.8-69.3-36.3-36.3-55.5-70.8-69.4-96-1.5-2.7-2.9-5.2-4.3-7.7l26.7-26.7 13.1-13.2c16.3-16.3 16.8-42.4 1.1-58.1l-79.1-79C92.2-4.2 66.1-3.8 49.8 12.6L27.5 35l.6.6C20.7 45.1 14.4 56.1 9.8 68c-4.3 11.3-7 22.1-8.2 32.9-10.4 86.6 29.1 165.7 136.5 273C286.5 522.2 406 511 411.2 510.5c11.2-1.3 22-4 32.9-8.3 11.8-4.6 22.7-10.8 32.3-18.3l.5.4 22.6-22.1c16.3-16.3 16.7-42.4 1-58.1z" fill="#fff"/></svg>