<svg id="Capa_1" xmlns="http://www.w3.org/2000/svg" viewBox="0 0 511.9 512"><style>.st0{fill:#444}</style><path class="st0" d="M413.4 154.5L267.8 73.9c-7.4-4.1-16.3-4.1-23.7 0L98.6 154.5C90.8 158.8 86 167 86 175.9v160.3c0 8.9 4.8 17.1 12.6 21.4l145.6 80.7c3.7 2.1 7.8 3.1 11.8 3.1 4.1 0 8.1-1 11.8-3.1l145.6-80.7c7.8-4.3 12.6-12.5 12.6-21.4V175.9c-.1-8.9-4.9-17.1-12.6-21.4zM253.8 91.3c1.3-.7 2.9-.7 4.3 0l58.1 32.2L176 201.2l-59.5-33.8 137.3-76.1zm-7.8 325L108.3 340c-1.4-.8-2.3-2.3-2.3-3.9V184.4l65 36.9 75 42.6v152.4zm-49.6-203.5L336.9 135l60.4 33.5L256 246.7l-59.6-33.9zm209.5 123.3c0 1.6-.9 3.1-2.3 3.9L266 416.3V264.1l140-77.6v149.6z"/><path class="st0" d="M185.8 254.5l-53-29.2c-3.1-1.7-6.9-1.6-9.9.1-3 1.8-4.9 5.1-4.9 8.6v42.3c0 3.6 2 7 5.2 8.8l53 29.2c1.5.8 3.2 1.2 4.8 1.2 1.8 0 3.5-.5 5.1-1.4 3-1.8 4.9-5.1 4.9-8.6v-42.3c0-3.6-2-7-5.2-8.7zM171 288.6l-33-18.2V251l33 18.2v19.4zM227.5 360.2L201 345.6c-4.8-2.7-10.9-.9-13.6 3.9s-.9 10.9 3.9 13.6l26.5 14.6c1.5.8 3.2 1.2 4.8 1.2 3.5 0 6.9-1.9 8.8-5.2 2.7-4.8.9-10.8-3.9-13.5z"/><path class="st0" d="M465.2 108.5l18.4-18.4c2.9-2.9 3.7-7.2 2.2-10.9s-5.2-6.2-9.2-6.2h-49.7c-5.5 0-10 4.5-10 10v49.7c0 4 2.4 7.7 6.2 9.2 1.2.5 2.5.8 3.8.8 2.6 0 5.2-1 7.1-2.9l16.8-16.8c63.3 92.6 52 219.9-28 299.9-68.9 68.8-171.1 88.4-260.5 49.8-5.1-2.2-11 .1-13.1 5.2-2.2 5.1.1 11 5.2 13.1 32.2 13.9 66.6 21 101.3 21 15.4 0 30.9-1.4 46.3-4.2 51.3-9.3 98-33.8 135-70.8 43.8-43.8 70.2-101.8 74.4-163.5 3.9-58.9-12.4-117.1-46.2-165zm-28.3 0V93h15.5l-15.5 15.5zM133.6 457.8l-.4-.2c-4.7-2.9-10.9-1.4-13.7 3.3-2.9 4.7-1.4 10.9 3.3 13.7l.4.2c1.6 1 3.4 1.5 5.2 1.5 3.4 0 6.7-1.7 8.6-4.8 2.8-4.7 1.3-10.8-3.4-13.7zM390.5 38.2l-.5-.3c-4.7-2.9-10.9-1.4-13.8 3.3s-1.4 10.9 3.3 13.8l.5.3c1.6 1 3.4 1.5 5.2 1.5 3.4 0 6.6-1.7 8.5-4.8 3-4.8 1.5-10.9-3.2-13.8zM356.9 20.7C310.5.8 259.5-4.9 209.5 4.3 158.4 13.6 111.9 38.1 75 75 31.2 118.8 4.8 176.8.6 238.5c-4 58.8 12.4 117.1 46.1 164.9l-18.4 18.4c-2.9 2.9-3.7 7.2-2.2 10.9s5.2 6.2 9.2 6.2H85c5.5 0 10-4.5 10-10v-49.7c0-4-2.4-7.7-6.2-9.2-3.7-1.5-8-.7-10.9 2.2L61.1 389c-63.3-92.6-52-219.9 28-299.9 68.7-68.7 170.7-88.3 260-50 5.1 2.2 11-.2 13.1-5.2 2.2-5.1-.2-11-5.3-13.2zM75 403.5V419H59.5L75 403.5z"/></svg>