<svg id="Слой_1" xmlns="http://www.w3.org/2000/svg" viewBox="0 0 441.1 512"><style>.st0{fill:#444}</style><path class="st0" d="M270.6 180c5.5 0 10-4.5 10-10s-4.5-10-10-10-10 4.5-10 10 4.4 10 10 10zM170.6 180c5.5 0 10-4.5 10-10s-4.5-10-10-10-10 4.5-10 10 4.4 10 10 10zM193.8 248.7c8.4 4 17.4 6 26.7 6 9.1 0 18-1.9 26.2-5.7 5-2.3 7.2-8.2 4.9-13.3-2.3-5-8.2-7.2-13.3-4.9-5.6 2.6-11.6 3.9-17.9 3.9-6.4 0-12.5-1.4-18.2-4.1-5-2.4-11-.2-13.3 4.8-2.2 5-.1 11 4.9 13.3z"/><path class="st0" d="M441.1 405.8c0-55-62.6-98.1-116.3-100.2L297.4 281c33.4-24.3 53.6-63.4 53.6-105v-66C351 49.3 301.5 0 240.6 0h-40C139.9 0 91 49.2 91 110v66c0 41.5 20 80.5 52.9 104.8l-27.6 24.8C62.7 307.7 0 350.7 0 405.8V502c0 5.5 4.5 10 10 10h421.1c5.5 0 10-4.5 10-10v-96.2zM198.4 446h44.2l10.5 46h-65.5l10.8-46zm45.1-20h-45.7l-7.7-23.9 30.5-15.2 31.1 15.6-8.2 23.5zm-23-69.2l-34.8-55.6c11.3 3.1 23 4.8 34.9 4.8 11.7 0 23.4-1.6 34.6-4.7l-34.7 55.5zm14.4 14.9l48-76.8 25.9 23.3-32.9 74-41-20.5zM200.6 20h40c49.8 0 90.4 40.4 90.4 90v8.3l-18.8-27c-1.7-2.4-4.4-4-7.4-4.3-3-.3-5.9.8-8 3-20.3 20.7-43.8 30-76.2 30-32.4 0-56-9.3-76.3-30.1-2.1-2.1-5-3.2-8-3-3 .3-5.7 1.8-7.4 4.3L111 117.4V110c0-49.6 40.2-90 89.6-90zM111 176v-23.1l27.8-40.7c22.3 18.9 48.5 27.8 81.8 27.8s59.6-8.9 81.8-27.9l28.6 41.2V176c0 59.9-48.9 110-110.4 110-61.2 0-109.6-50-109.6-110zm47.2 118.8l48 76.8-41 20.5-32.9-74 25.9-23.3zM20 405.8c0-41.2 50.1-76.8 93.8-80l37.4 84.1c1.1 2.5 3.2 4.4 5.8 5.3s5.4.8 7.8-.5l7.1-3.6 8.1 25.3-13 55.6H20v-86.2zM421.1 492H273.6L261 436.6l8.7-25.1 6.5 3.3c2.5 1.2 5.3 1.4 7.8.5 2.6-.9 4.7-2.9 5.8-5.3l37.4-84.1c43.8 3.2 93.8 38.8 93.8 80V492z"/><path class="st0" d="M350.6 446h-40c-5.5 0-10 4.5-10 10s4.5 10 10 10h40c5.5 0 10-4.5 10-10s-4.5-10-10-10zM390 446c5.5 0 10 4.5 10 10s-4.5 10-10 10-10-4.5-10-10 4.5-10 10-10z"/></svg>