<svg id="Capa_1" xmlns="http://www.w3.org/2000/svg" viewBox="0 0 339.5 319.8"><style>.st0{fill:#444}</style><path class="st0" d="M325.5 270.7h-4.7v-254c0-7.7-6.3-14-14-14H169.9c-7.7 0-14 6.3-14 14v104c-13 3.2-24.4 11-32 22.1-9.3 13.4-12.2 30.2-7.8 45.9 5.8 22.1 6.5 51.4-5.4 63.5-6.9 6.1-16.5 7.9-25.1 4.7-9.3-1.5-17.2-7.5-21-16-12.7-29.4 19-84.9 19.1-85.1 1.9-2.9 46.2-71.6 1-112C82.9 41.9 39.3-4.2 5.6.3 2 .7-.4 3.9.1 7.3s3.6 5.8 7 5.4c8.1-.5 16.2 1.3 23.3 5.2l-9 10.8c-4.9 6-3.9 14.8 2.1 19.7.1.1.2.2.3.2l30.1 24c2.5 2 5.6 3.1 8.7 3h1.2c3.7-.4 7.1-2.3 9.4-5.2l8.7-11c27 34.6-8 89.6-8.9 90.5-1.4 2.5-35 61.3-20 96 5.6 12.1 16.7 20.6 29.8 22.7 4 1 8.2 1.5 12.3 1.5 9 .3 17.7-3.2 24-9.5 16-16.7 14.7-50.8 8.5-75-6.6-22.2 6-45.7 28.2-52.4v137.4h-4c-7.7-.2-14.1 5.9-14.3 13.7v21.3c0 7.7 6.3 14 14 14h174c7.7 0 14-6.3 14-14v-21c0-7.6-6.3-13.9-14-13.9zM72.7 52.1l-8.9 11c-.3.4-.8.7-1.4.7-.5.1-1-.1-1.4-.4l-30.1-24c-.8-.8-.8-2 0-2.8l8.9-11c.3-.4.8-.7 1.4-.7.5-.1 1 .1 1.4.4l30.1 24c.4.3.7.8.7 1.4 0 .4-.3 1-.7 1.4zm95.1-35.4c0-1.1.9-2 2-2h137.1c1.1 0 2 .9 2 2v252c0 1.1-.9 2-2 2h-137c-1.1.1-2.1-.7-2.2-1.8v-.2l.1-252zm160 289c0 1.1-.9 2-2 2h-174c-1.1 0-2-.9-2-2v-21c0-1.1.9-2 2-2h173.7c1.1-.2 2.1.6 2.3 1.7v21.3z"/><path class="st0" d="M279.8 33.7h-82.9c-7.7 0-14 6.3-14 14v83c0 7.7 6.3 14 14 14h82.9c7.7 0 14-6.3 14-14v-83c0-7.7-6.3-14-14-14zm2 97.1c0 1.1-.9 1.9-2 1.9h-82.9c-1.1 0-2-.9-2-2v-83c0-1.1.9-2 2-2h82.9c1.1 0 2 .9 2 2v83.1zM270.4 167.3h-64c-3.3 0-6 2.7-6 6s2.7 6 6 6h64c3.3 0 6-2.7 6-6s-2.7-6-6-6z"/></svg>