<svg id="Слой_1" xmlns="http://www.w3.org/2000/svg" viewBox="0 0 96.9 136"><style>.st0{fill:#333333}</style><g id="surface1"><path class="st0" d="M21.4 27.6h54.2c1 0 1.9-.8 1.9-1.9 0-1-.8-1.9-1.9-1.9H21.4c-1 0-1.9.8-1.9 1.9 0 1.1.8 1.9 1.9 1.9z"/><path class="st0" d="M0 18.5v111.6c0 3.2 2.6 5.8 5.8 5.8H91c3.2 0 5.8-2.6 5.8-5.8V18.5c0-3.2-2.6-5.8-5.8-5.8H62.8C61.9 4.8 54.7-.9 46.8.1c-6.6.8-11.8 6-12.6 12.6H5.8c-3.2 0-5.8 2.6-5.8 5.8zm93.2 111.7c0 1.2-.9 2.1-2.1 2.1H5.8c-1.2 0-2.1-.9-2.1-2.1V36.5h89.5v93.7zM48.4 3.7c5.3 0 9.7 3.8 10.6 9H37.9c.9-5.2 5.3-9 10.5-9zm42.7 12.7c1.2 0 2.1.9 2.1 2.1v14.3H3.7V18.5c0-1.2.9-2.1 2.1-2.1h85.3z"/><path class="st0" d="M37.5 57h43.9c1 0 1.9-.8 1.9-1.9 0-1-.8-1.9-1.9-1.9H37.5c-1 0-1.9.8-1.9 1.9.1 1.1.9 1.9 1.9 1.9zM37.5 76.4h43.9c1 0 1.9-.8 1.9-1.9 0-1-.8-1.9-1.9-1.9H37.5c-1 0-1.9.8-1.9 1.9.1 1.1.9 1.9 1.9 1.9zM37.5 95.8h43.9c1 0 1.9-.8 1.9-1.9 0-1-.8-1.9-1.9-1.9H37.5c-1 0-1.9.8-1.9 1.9.1 1.1.9 1.9 1.9 1.9zM37.5 115.2h43.9c1 0 1.9-.8 1.9-1.9 0-1-.8-1.9-1.9-1.9H37.5c-1 0-1.9.8-1.9 1.9.1 1 .9 1.9 1.9 1.9zM19 58.1c.3.4.7.7 1.2.8h.3c.4 0 .8-.1 1.1-.4l11.8-9.3c.9-.5 1.2-1.7.7-2.5-.5-.9-1.6-1.2-2.5-.7-.2.1-.3.2-.4.3l-10.3 8.1-1.8-2.6c-.6-.8-1.7-1.1-2.6-.5-.8.6-1.1 1.7-.5 2.6l3 4.2zM19 77.2c.3.4.7.7 1.2.8h.3c.4 0 .8-.1 1.1-.4l11.8-9.3c.8-.6 1-1.8.4-2.6s-1.8-1-2.6-.4c0 0-.1 0-.1.1l-10.3 8.1-1.8-2.6c-.5-.9-1.6-1.3-2.5-.8-.9.5-1.3 1.6-.8 2.5.1.1.2.3.3.4l3 4.2zM19 96.3c.3.4.7.7 1.2.8h.3c.4 0 .8-.1 1.1-.4l11.8-9.3c.8-.6 1-1.8.4-2.6s-1.8-1-2.6-.4c0 0-.1 0-.1.1l-10.3 8-1.7-2.5c-.6-.8-1.8-1-2.6-.5-.8.6-1 1.8-.5 2.6l3 4.2zM19 115.7c.3.4.7.7 1.2.8h.3c.4 0 .8-.1 1.1-.4l11.8-9.3c.9-.5 1.1-1.7.6-2.6-.6-.9-1.7-1.1-2.6-.6-.1.1-.2.1-.3.2L20.9 112l-1.8-2.6c-.6-.8-1.7-1-2.6-.5-.8.6-1.1 1.7-.5 2.6l3 4.2z"/></g></svg>