<svg id="Capa_1" xmlns="http://www.w3.org/2000/svg" viewBox="0 0 512 512"><style>.st0{fill:#333333}</style><path class="st0" d="M416 426c-5.5 0-10 4.5-10 10s4.5 10 10 10 10-4.5 10-10-4.5-10-10-10z"/><path class="st0" d="M446 47.4V30c0-16.5-13.5-30-30-30H96C79.5 0 66 13.5 66 30v17.4C.8 167.9 0 164.3 0 170v20c0 17.3 10 33.5 26 42.6V502c0 5.5 4.5 10 10 10h440c5.5 0 10-4.5 10-10V232.6c15.8-9.2 26-25.5 26-42.6v-20c0-5.7-1.4-3.3-66-122.6zM485.1 160h-61.9L389.9 60h40.2l55 100zM346 180h60v10c0 16.5-13.5 30-30 30s-30-13.5-30-30v-10zm-1.5-20L327.8 60h41l33.3 100h-57.6zM86 30c0-5.5 4.5-10 10-10h320c5.5 0 10 4.5 10 10v10H86V30zm240 150v10c0 16.5-13.5 30-30 30s-30-13.5-30-30v-10h60zm-60-20V60h41.5l16.7 100H266zm-78.2 0l16.7-100H246v100h-58.2zm58.2 20v10c0 16.5-13.5 30-30 30s-30-13.5-30-30v-10h60zm-136.1-20l33.3-100h41l-16.7 100h-57.6zm56.1 20v10c0 16.5-13.5 30-30 30s-30-13.5-30-30v-10h60zM81.9 60h40.2L88.8 160H26.9l55-100zM20 190v-10h66v10c0 15.7-15.7 30-33 30-4.4 0-8.9-.9-13.1-2.7C28 212.2 20 201.2 20 190zm186 302H106v-86h100v86zm0-106H106v-86h100v86zm260 106H226V290c0-5.5-4.5-10-10-10H96c-5.5 0-10 4.5-10 10v202H46V239.5c2.3.3 4.7.5 7 .5 13.2 0 26.5-5.2 36.5-14.3 2.2-2 4.2-4.2 6-6.4 9.1 12.5 23.9 20.7 40.5 20.7 16.3 0 30.9-7.9 40-20 9.1 12.2 23.7 20 40 20s30.9-7.9 40-20c9.1 12.2 23.7 20 40 20s30.9-7.9 40-20c9.1 12.2 23.7 20 40 20 16.6 0 31.4-8.2 40.5-20.7 1.8 2.3 3.8 4.4 6 6.4 10 9.1 23.3 14.3 36.5 14.3 2.3 0 4.7-.2 7-.5V492zm26-302c0 11.5-8.3 22.6-20.7 27.6-4 1.6-8.2 2.4-12.3 2.4-17.3 0-33-14.3-33-30v-10h66v10z"/><path class="st0" d="M436 386h-10v-96c0-5.5-4.5-10-10-10H296c-5.5 0-10 4.5-10 10v96h-10c-5.5 0-10 4.5-10 10s4.5 10 10 10h160c5.5 0 10-4.5 10-10s-4.5-10-10-10zm-30 0H306v-86h100v86zM376 426h-80c-5.5 0-10 4.5-10 10s4.5 10 10 10h80c5.5 0 10-4.5 10-10s-4.5-10-10-10z"/></svg>