<svg xmlns="http://www.w3.org/2000/svg" viewBox="0 0 597.1 612"><path d="M251.7 322.5c0 16.9-13.7 30.7-30.7 30.7s-30.7-13.7-30.7-30.7 13.7-30.7 30.7-30.7c16.9 0 30.7 13.7 30.7 30.7zm124.4-30.7c-16.9 0-30.7 13.7-30.7 30.7s13.7 30.7 30.7 30.7c16.9 0 30.7-13.7 30.7-30.7s-13.8-30.7-30.7-30.7zm131 124.8v-3.5c-3.5 10.2-7.7 19.9-12.3 29.3.8 5.8 2.4 13.8 5 23 12.6 19.5 48.2 44.3 72.5 50.7-13.1 5.6-29 7.9-44.4 5.5 14.1 17.8 34 33.9 62 43.5-65.6 59.1-173.6 60.4-249.1 14.5-14.6 4.3-28.9 6.6-42.3 6.6s-27.7-2.3-42.3-6.6c-75.5 45.9-183.6 44.6-249.1-14.5 28.6-9.8 48.7-26.4 62.8-44.5-12.5.5-24.9-1.8-35.6-6.3 17.9-4.7 41.7-19.3 58.2-34.4 5.8-15.2 8.5-28.8 9.8-37.5-4.5-9.4-8.8-19.1-12.3-29.3v3.5H53c-29.3 0-53-23.7-53-53v-58.3c0-20.1 11.2-37.6 27.8-46.6.6-82.7 24.7-147.3 71.8-192C146.3 22.5 213.2 0 298.6 0c85.3 0 152.3 22.5 199 66.8 47.1 44.7 71.2 109.3 71.8 192 16.5 9 27.8 26.5 27.8 46.6v58.3c0 29.3-23.7 53-53 53l-37.1-.1zm-22.1-94c0-13.6-.7-26.4-1.7-38.8-23.9-21.9-67.6-38.4-122.7-44.2 8.7 7.8 16.3 18.3 20.3 33.2-32.1-23.4-99.2-30.7-121.6-55.8-35.5-23.5-44.8-57.2-45.1-43.3-1.4 66.8-48.8 119-101.4 126.3-.3 7.4-.6 14.8-.6 22.5 0 28.3 4.6 54 12.5 77.2 29.6 35.6 78.4 45.7 121.6 48.4 8-12.8 26-21.7 47-21.7 28.4 0 51.4 16.3 51.4 36.5s-23 36.5-51.4 36.5c-21.9 0-40.5-9.7-47.9-23.3-30.2-1.8-63.4-6.9-93-20.9 41.6 61.3 106.1 93.7 146.4 93.7 63 .2 186.2-79.7 186.2-226.3zm32.1-70.2h20.4C534.1 108 451.7 31.8 298.6 31.8S63 108 59.7 252.4H80c7.5-48.7 23.2-88.7 47.1-119.4 38.1-49 95.8-73.9 171.4-73.9S431.9 83.9 470 133c23.9 30.7 39.6 70.7 47.1 119.4z" fill="#27ae60"/></svg>